<svg version="1.1" id="Layer_1" xmlns="http://www.w3.org/2000/svg" xmlns:xlink="http://www.w3.org/1999/xlink" x="0px" y="0px"
     width="150" height="72.7" style="enable-background:new 0 0 150 72.7;" viewBox="0 0 150 72.7" xml:space="preserve">
<style type="text/css">
    .st0 {
        fill-rule: evenodd;
        clip-rule: evenodd;
        fill: url(#SVGID_1_);
    }

    .st1 {
        fill-rule: evenodd;
        clip-rule: evenodd;
        fill: #0087C2;
    }
</style>
<g id="SGK_LOGOTYPE_00000021814550640813195680000014554792784669715638_">
<linearGradient id="SVGID_1_" gradientUnits="userSpaceOnUse" x1="0.2736" y1="29.6472" x2="149.5569" y2="29.6472">
<stop offset="0" style="stop-color:#154474" />
<stop offset="1" style="stop-color:#0087C2" />
</linearGradient>
<path class="st0" d="M71.7,0.6C41.5,1.5,23.1,7.1,10.9,17C-1.4,26.8-0.5,40.2,1.4,45.3c1.6,4.4,2.4,5.5,4.5,8.2
c2.7,3.6,5.2,5.2,5.2,5.2S-8.4,32.9,25.8,21c34.2-11.9,95,0.5,95,0.5l28.7-12.7C149.6,8.8,101.9-0.3,71.7,0.6z" />
<path class="st1" d="M19.9,54.4c-0.1-0.1-0.3-0.1-0.5,0c-0.2,0.1-0.4,0.1-0.5,0.3c0.1,0.6,0.2,1.4,0.3,2.6c0.1,1.1,0.3,2.2,0.5,3.2
c0.2,1,0.4,1.7,0.5,2c0.5,0.3,1.5,0.7,2.9,1c1.4,0.3,2.9,0.5,4.6,0.5c3.8-0.1,6.8-1,8.9-2.8c2.1-1.8,3.1-4.2,3.2-7.2
c0-1.8-0.5-3.4-1.5-4.8c-1-1.3-2.3-2.6-4-3.7c-1-0.7-2-1.3-2.9-1.8c-0.9-0.6-1.9-1.2-2.9-2c-1.1-0.8-1.9-1.7-2.5-2.6
c-0.6-1-0.9-2-0.9-3.3c0-1.5,0.5-2.8,1.4-3.8c0.9-1,2.3-1.5,3.9-1.5c0.8,0,1.6,0.1,2.2,0.2c0.7,0.2,1.3,0.5,1.9,0.9
c0.7,0.4,1.3,1.1,1.6,2c0.4,0.9,0.6,2.2,0.8,3.9c0.1,0.1,0.2,0.1,0.5,0c0.2,0,0.4-0.1,0.5-0.2c0.1-1.6,0.3-2.9,0.4-4.1
c0.2-1.2,0.3-2.2,0.5-3.2c-1-0.1-2.1-0.2-3.4-0.4s-2.7-0.3-4.5-0.4c-3,0-5.6,0.8-7.6,2.4c-2,1.6-3.1,3.9-3.2,6.9
c0,2.3,0.7,4.3,2,5.9c1.4,1.6,3.3,3.2,6,4.9c2.2,1.4,3.7,2.7,4.7,3.9c1,1.2,1.4,2.6,1.4,4.2c0,1.7-0.5,3-1.4,3.9
c-0.9,0.9-2.1,1.4-3.7,1.4c-1,0-1.9-0.1-2.8-0.3c-0.9-0.2-1.6-0.6-2.4-1c-1-0.6-1.8-1.5-2.4-2.6C21,57.7,20.4,56.3,19.9,54.4z" />
<path class="st1" d="M75.1,61.1c-0.4-0.2-0.7-0.3-0.8-0.5c-0.1-0.2-0.2-0.4-0.3-0.8c-0.1-0.6-0.1-1.4-0.1-2.4c0-1,0-2,0.1-3
c0-1.5,0.1-2.5,0.3-3c0.2-0.5,0.6-0.7,1.1-0.8c0.2-0.1,0.4-0.2,0.6-0.2s0.5-0.1,0.7-0.2c0.1-0.1,0.1-0.2,0.1-0.5
c0-0.2,0-0.4-0.1-0.5c-0.5,0-1.2,0.1-2,0.1c-0.8,0-2.1,0.1-3.7,0.1c-1.5,0-2.9,0-4.3-0.1c-1.4-0.1-2.6-0.1-3.5-0.1
c-0.1,0.1-0.1,0.2-0.1,0.5c0,0.2,0,0.4,0.1,0.5c0.5,0,1,0.1,1.4,0.1s0.8,0.1,1.3,0.2c0.8,0.1,1.3,0.4,1.6,0.8
c0.3,0.4,0.5,1.2,0.5,2.3c0.1,1,0.1,2.1,0.1,3.4c0,1.3-0.1,2.4-0.2,3.2c-0.1,0.5-0.2,1-0.4,1.3c-0.2,0.3-0.5,0.6-0.9,0.7
c-0.3,0.1-0.6,0.2-1.1,0.3c-0.5,0.1-1.1,0.1-1.7,0.1c-3.9-0.1-7-1.6-9.2-4.6c-2.2-3-3.4-7.1-3.4-12.3c0.1-5.3,1.2-9.2,3.4-11.6
c2.2-2.4,4.9-3.6,8.2-3.5c1.6,0,3.1,0.2,4.3,0.5c1.2,0.3,2.3,0.8,3.3,1.5c0.7,0.5,1.2,1.2,1.6,2.1c0.4,0.9,0.6,2.3,0.8,4.1
c0.1,0.1,0.3,0.1,0.6,0.1c0.3,0,0.5-0.1,0.5-0.2c0-1.4,0.1-2.9,0.3-4.5c0.2-1.6,0.4-2.8,0.6-3.7c-1.2-0.1-2.7-0.4-4.5-0.7
c-1.8-0.3-3.7-0.5-5.9-0.5c-2.3,0-4.3,0.2-6,0.5c-1.6,0.3-3.2,0.8-4.6,1.4c-3,1.3-5.3,3.3-6.9,5.9c-1.7,2.6-2.5,5.7-2.5,9.3
c0,6,1.7,10.5,4.9,13.3C52.5,62.6,57.1,64,63,64c2.4,0,4.8-0.3,7-0.8c2.2-0.5,3.9-0.9,4.9-1.3c0.1-0.1,0.1-0.2,0.1-0.4
C75.1,61.3,75.1,61.2,75.1,61.1z" />
<path class="st1" d="M98.3,31c0.7,0.1,1.3,0.2,1.7,0.3c0.4,0.1,0.9,0.2,1.2,0.3c0.4,0.1,0.6,0.3,0.8,0.4c0.1,0.2,0.2,0.4,0.2,0.5
c0,0.5-0.2,1-0.6,1.7c-0.4,0.6-0.9,1.4-1.5,2.2c-1.9,2.4-3.7,4.6-5.5,6.4c-1.8,1.8-3.4,3.1-4.6,3.8c-0.1,0-0.1,0.1-0.1,0.3
c0,0.1,0,0.2,0,0.3c0.1,0.1,0.3,0.2,0.4,0.3c0.1,0.1,0.2,0.3,0.4,0.4c0.9,1.3,1.9,2.7,3.1,4.3c1.2,1.6,2.4,3.1,3.6,4.6
c1.2,1.5,2.2,2.7,3.1,3.7c0.4,0.4,0.9,0.9,1.4,1.3c0.5,0.4,1.1,0.8,1.7,1c0.5,0.2,1.4,0.3,2.6,0.4c1.2,0.1,2.5,0.1,3.8,0.1
c1.3,0,2.5,0,3.4-0.2c0.1-0.1,0.1-0.2,0.2-0.5c0-0.2,0-0.4,0-0.5c-0.6,0-1.1-0.1-1.5-0.1c-0.5-0.1-0.9-0.2-1.4-0.4
c-0.4-0.1-0.7-0.3-1.1-0.5c-0.4-0.2-0.7-0.5-1.1-0.9c-1.2-1.1-2.6-2.7-4.4-4.7c-1.8-2.1-3.5-4.1-5.2-6.2c-1.6-2.1-2.8-3.8-3.5-5
v-0.2c1.1-1.2,2.4-2.6,3.9-4.4c1.5-1.7,3-3.5,4.5-5.2c1.3-1.5,2.3-2.4,3.2-2.8c0.9-0.4,2-0.7,3.3-0.8c0.1-0.1,0.1-0.3,0.1-0.5
c0-0.2,0-0.4-0.1-0.4l-6.4,0.2c-0.9,0-1.7,0-2.5-0.1c-0.8,0-1.8-0.1-3-0.1c-0.1,0.1-0.1,0.2-0.1,0.5S98.2,31,98.3,31z M89.4,46.2
c0-1,0-2.2,0-3.7c0-1.5,0-2.9,0-4.4c0-1.5,0-2.6,0-3.5c0-0.9,0.1-1.6,0.3-2.2c0.2-0.5,0.6-0.9,1.1-1c0.3-0.1,0.6-0.2,1-0.2
c0.4-0.1,0.8-0.1,1.2-0.2c0.1-0.1,0.1-0.3,0.1-0.5c0-0.2,0-0.4-0.1-0.4c-0.7,0-1.6,0-2.8,0.1c-1.2,0-2.4,0.1-3.6,0.1
c-1.7,0-3.1,0-4.3-0.1c-1.2,0-2.1-0.1-2.7-0.1c-0.1,0.1-0.1,0.2-0.1,0.4c0,0.2,0,0.4,0.1,0.5c0.4,0,0.8,0.1,1.2,0.2
s0.8,0.2,1.2,0.3c0.6,0.2,0.9,0.5,1.1,1c0.2,0.5,0.3,1.1,0.3,1.9c0,1.2,0,2.9,0,5c0,2.1,0,4.2,0,6.4c0,1.5,0,3.1,0,4.8
c0,1.7,0,3.2,0,4.6c0,1.4,0,2.6,0,3.5c0,1-0.2,1.8-0.4,2.4c-0.2,0.5-0.7,0.9-1.3,1c-0.3,0.1-0.7,0.1-1,0.2c-0.3,0-0.8,0.1-1.4,0.2
c-0.1,0.1-0.1,0.2-0.1,0.4s0,0.4,0.1,0.4c0.5,0,1.4,0,2.9-0.1c1.5-0.1,2.9-0.1,4.2-0.1c1.4,0,2.7,0,3.9,0.1s2.3,0.1,3.1,0.1
c0.1-0.1,0.1-0.2,0.2-0.4c0-0.2,0-0.4,0-0.5c-0.4,0-0.8-0.1-1.2-0.1c-0.4,0-0.8-0.1-1.2-0.2c-0.6-0.1-1.1-0.4-1.3-0.8
c-0.3-0.4-0.4-1.2-0.4-2.2c-0.1-1.8-0.1-3.8-0.1-6.1C89.4,50.6,89.4,48.4,89.4,46.2z" />
</g>
</svg>
